<svg xmlns="http://www.w3.org/2000/svg" viewBox="0 0 136 155" style="enable-background:new 0 0 136 155" xml:space="preserve"><path d="M119.9 53.5h-12.7l24.7-29.1c3.7-4.3 4.5-10.3 2.1-15.5S126.5.5 120.8.5H65c-5.8 0-11 3.4-13.3 8.7L21.3 78.4c-2 4.5-1.5 9.7 1.1 13.8 2 3.1 5.2 5.3 8.7 6.2L3.9 130.6c-4.7 5.5-4.5 13.7.3 19.1s13 6.3 19 2.2L128.1 80c5.2-3.6 7.5-10.2 5.6-16.3-1.9-6.1-7.5-10.2-13.8-10.2z" style="fill:#3c3a31"/><path d="M120.8 15H65L34.6 84.2H62L120.8 15z" style="fill:#00a595"/><path d="M119.9 68 15 139.9 75.8 68h44.1z" style="fill:#fff100"/></svg>